<svg version="1.1" xmlns="http://www.w3.org/2000/svg" xmlns:xlink="http://www.w3.org/1999/xlink" width="214.15696" height="171.61851" viewBox="0,0,214.15696,171.61851"><g transform="translate(-133.76533,-94.19075)"><g data-paper-data="{&quot;isPaintingLayer&quot;:true}" fill-rule="nonzero" stroke-linejoin="miter" stroke-miterlimit="10" stroke-dasharray="" stroke-dashoffset="0" style="mix-blend-mode: normal"><text transform="translate(166.03318,111.79072) scale(0.37506,0.37506)" font-size="40" xml:space="preserve" fill="#000000" fill-rule="nonzero" stroke="none" stroke-width="5" stroke-linecap="butt" stroke-linejoin="miter" stroke-miterlimit="10" stroke-dasharray="" stroke-dashoffset="0" font-family="Sans Serif" font-weight="normal" text-anchor="start" style="mix-blend-mode: normal"><tspan x="0" dy="0">Идея 1</tspan></text><g stroke="none" stroke-width="2.5" stroke-linecap="butt"><path d="M134.85548,106.75446c0,-6.93877 5.62498,-12.56372 12.56372,-12.56372c6.93877,0 12.56372,5.62498 12.56372,12.56372c0,6.93877 -5.62498,12.56372 -12.56372,12.56372c-6.93877,0 -12.56372,-5.62498 -12.56372,-12.56372z" fill="#000000"/><path d="M137.36822,106.75446c0,-5.551 4.5,-10.05097 10.05101,-10.05097c5.551,0 10.05097,4.49997 10.05097,10.05097c0,5.551 -4.49997,10.05101 -10.05097,10.05101c-5.551,0 -10.05101,-4.5 -10.05101,-10.05101z" fill="#ffcccc"/></g><text transform="translate(260.29418,143.78978) scale(0.37503,0.37503)" font-size="40" xml:space="preserve" fill="#000000" fill-rule="nonzero" stroke="none" stroke-width="5" stroke-linecap="butt" stroke-linejoin="miter" stroke-miterlimit="10" stroke-dasharray="" stroke-dashoffset="0" font-family="Sans Serif" font-weight="normal" text-anchor="start" style="mix-blend-mode: normal"><tspan x="0" dy="0">Идея 3</tspan></text><g stroke="none" stroke-width="2.5" stroke-linecap="butt"><path d="M229.11651,138.75352c0,-6.93877 5.62498,-12.56372 12.56372,-12.56372c6.93877,0 12.56372,5.62498 12.56372,12.56372c0,6.93877 -5.62498,12.56372 -12.56372,12.56372c-6.93877,0 -12.56372,-5.62494 -12.56372,-12.56372z" fill="#000000"/><path d="M231.62928,138.75352c0,-5.551 4.49997,-10.05101 10.05097,-10.05101c5.551,0 10.05101,4.5 10.05101,10.05101c0,5.551 -4.5,10.05097 -10.05101,10.05097c-5.551,0 -10.05097,-4.49997 -10.05097,-10.05097z" fill="#ffffff"/></g><text transform="translate(164.943,174.00514) scale(0.37503,0.37503)" font-size="40" xml:space="preserve" fill="#000000" fill-rule="nonzero" stroke="none" stroke-width="5" stroke-linecap="butt" stroke-linejoin="miter" stroke-miterlimit="10" stroke-dasharray="" stroke-dashoffset="0" font-family="Sans Serif" font-weight="normal" text-anchor="start" style="mix-blend-mode: normal"><tspan x="0" dy="0">Идея 2</tspan></text><g stroke="none" stroke-width="2.5" stroke-linecap="butt"><path d="M133.76533,168.96885c0,-6.93877 5.62498,-12.56372 12.56372,-12.56372c6.93877,0 12.56372,5.62498 12.56372,12.56372c0,6.93877 -5.62498,12.56372 -12.56372,12.56372c-6.93877,0 -12.56372,-5.62498 -12.56372,-12.56372z" fill="#000000"/><path d="M136.27807,168.96885c0,-5.551 4.49997,-10.05097 10.05097,-10.05097c5.551,0 10.05101,4.49997 10.05101,10.05097c0,5.551 -4.5,10.05101 -10.05101,10.05101c-5.551,0 -10.05097,-4.5 -10.05097,-10.05101z" fill="#ffffff"/></g><path d="M145.48958,126.84412l0.17242,16.51786" fill="none" stroke="#000000" stroke-width="2.5" stroke-linecap="round"/><text transform="translate(165.66093,217.79868) scale(0.37503,0.37503)" font-size="40" xml:space="preserve" fill="#000000" fill-rule="nonzero" stroke="none" stroke-width="5" stroke-linecap="butt" stroke-linejoin="miter" stroke-miterlimit="10" stroke-dasharray="" stroke-dashoffset="0" font-family="Sans Serif" font-weight="normal" text-anchor="start" style="mix-blend-mode: normal"><tspan x="0" dy="0">Идея 4</tspan></text><g stroke="none" stroke-width="2.5" stroke-linecap="butt"><path d="M134.48327,212.76242c0,-6.93877 5.62498,-12.56372 12.56372,-12.56372c6.93877,0 12.56372,5.62498 12.56372,12.56372c0,6.93877 -5.62498,12.56372 -12.56372,12.56372c-6.93877,0 -12.56372,-5.62498 -12.56372,-12.56372z" fill="#000000"/><path d="M136.99601,212.76242c0,-5.551 4.49997,-10.05097 10.05097,-10.05097c5.551,0 10.05101,4.49997 10.05101,10.05097c0,5.551 -4.5,10.05097 -10.05101,10.05097c-5.551,0 -10.05097,-4.49997 -10.05097,-10.05097z" fill="#ffffff"/></g><text transform="translate(295.98118,174.75039) scale(0.37503,0.37503)" font-size="40" xml:space="preserve" fill="#000000" fill-rule="nonzero" stroke="none" stroke-width="5" stroke-linecap="butt" stroke-linejoin="miter" stroke-miterlimit="10" stroke-dasharray="" stroke-dashoffset="0" font-family="Sans Serif" font-weight="normal" text-anchor="start" style="mix-blend-mode: normal"><tspan x="0" dy="0">Идея 5</tspan></text><g stroke="none" stroke-width="2.5" stroke-linecap="butt"><path d="M264.80351,169.7141c0,-6.93877 5.62498,-12.56372 12.56372,-12.56372c6.93877,0 12.56372,5.62494 12.56372,12.56372c0,6.93877 -5.62498,12.56375 -12.56372,12.56375c-6.93877,0 -12.56372,-5.62498 -12.56372,-12.56375z" fill="#000000"/><path d="M267.31626,169.7141c0,-5.551 4.5,-10.05097 10.05101,-10.05097c5.551,0 10.05097,4.49997 10.05097,10.05097c0,5.551 -4.49997,10.05101 -10.05097,10.05101c-5.551,0 -10.05101,-4.5 -10.05101,-10.05101z" fill="#ffffff"/></g><path d="M255.08155,150.7443l8.9342,7.25904" fill="none" stroke="#000000" stroke-width="2.5" stroke-linecap="round"/><path d="M145.30745,195.62366l-0.21572,-9.35297" fill="none" stroke="#000000" stroke-width="2.5" stroke-linecap="round"/><text transform="translate(165.94013,258.2818) scale(0.37503,0.37503)" font-size="40" xml:space="preserve" fill="#000000" fill-rule="nonzero" stroke="none" stroke-width="5" stroke-linecap="butt" stroke-linejoin="miter" stroke-miterlimit="10" stroke-dasharray="" stroke-dashoffset="0" font-family="Sans Serif" font-weight="normal" text-anchor="start" style="mix-blend-mode: normal"><tspan x="0" dy="0">Идея 6</tspan></text><g stroke="none" stroke-width="2.5" stroke-linecap="butt"><path d="M134.76246,253.24554c0,-6.93877 5.62498,-12.56372 12.56372,-12.56372c6.93877,0 12.56372,5.62498 12.56372,12.56372c0,6.93877 -5.62498,12.56372 -12.56372,12.56372c-6.93877,0 -12.56372,-5.62498 -12.56372,-12.56372z" fill="#000000"/><path d="M137.2752,253.24554c0,-5.551 4.5,-10.05101 10.05101,-10.05101c5.551,0 10.05097,4.5 10.05097,10.05101c0,5.551 -4.49997,10.05097 -10.05097,10.05097c-5.551,0 -10.05101,-4.49997 -10.05101,-10.05097z" fill="#ccffd1"/></g><path d="M145.70087,227.93406l0.03809,8.35045" fill="none" stroke="#000000" stroke-width="2.5" stroke-linecap="round"/><text transform="translate(259.79762,213.1954) scale(0.37503,0.37503)" font-size="40" xml:space="preserve" fill="#000000" fill-rule="nonzero" stroke="none" stroke-width="5" stroke-linecap="butt" stroke-linejoin="miter" stroke-miterlimit="10" stroke-dasharray="" stroke-dashoffset="0" font-family="Sans Serif" font-weight="normal" text-anchor="start" style="mix-blend-mode: normal"><tspan x="0" dy="0">Идея 7</tspan></text><g stroke="none" stroke-width="2.5" stroke-linecap="butt"><path d="M228.61995,208.1591c0,-6.93877 5.62498,-12.56372 12.56372,-12.56372c6.93877,0 12.56372,5.62498 12.56372,12.56372c0,6.93877 -5.62498,12.56372 -12.56372,12.56372c-6.93877,0 -12.56372,-5.62498 -12.56372,-12.56372z" fill="#000000"/><path d="M231.13269,208.1591c0,-5.551 4.49997,-10.05097 10.05097,-10.05097c5.551,0 10.05101,4.49997 10.05101,10.05097c0,5.551 -4.5,10.05101 -10.05101,10.05101c-5.551,0 -10.05097,-4.5 -10.05097,-10.05101z" fill="#ffffff"/></g><path d="M239.58629,182.19931v-19.64128" fill="none" stroke="#000000" stroke-width="2.5" stroke-linecap="round"/><text transform="translate(259.01988,258.09576) scale(0.37503,0.37503)" font-size="40" xml:space="preserve" fill="#000000" fill-rule="nonzero" stroke="none" stroke-width="5" stroke-linecap="butt" stroke-linejoin="miter" stroke-miterlimit="10" stroke-dasharray="" stroke-dashoffset="0" font-family="Sans Serif" font-weight="normal" text-anchor="start" style="mix-blend-mode: normal"><tspan x="0" dy="0">Идея 8</tspan></text><g stroke="none" stroke-width="2.5" stroke-linecap="butt"><path d="M227.84221,253.0595c0,-6.93877 5.62498,-12.56372 12.56375,-12.56372c6.93877,0 12.56372,5.62498 12.56372,12.56372c0,6.93877 -5.62494,12.56372 -12.56372,12.56372c-6.93877,0 -12.56375,-5.62498 -12.56375,-12.56372z" fill="#000000"/><path d="M230.35495,253.0595c0,-5.551 4.5,-10.05101 10.05101,-10.05101c5.551,0 10.05097,4.5 10.05097,10.05101c0,5.551 -4.49997,10.05097 -10.05097,10.05097c-5.551,0 -10.05101,-4.49997 -10.05101,-10.05097z" fill="#d6ccff"/></g><path d="M240.18125,233.66005l0.14956,-7.8972" fill="none" stroke="#000000" stroke-width="2.5" stroke-linecap="round"/><path d="M182.66948,121.77197l24.66148,7.3642" fill="none" stroke="#000000" stroke-width="2.5" stroke-linecap="round"/></g></g></svg>